<svg xmlns="http://www.w3.org/2000/svg" width="44" height="44" viewBox="0 0 44 44" fill="none" role="img" aria-label="LinkedIn">
  <title>LinkedIn</title>
  <rect x="1.5" y="1.5" width="41" height="41" rx="12" fill="#071827" stroke="#06b6d4" stroke-width="2"/>
  <rect x="7" y="7" width="30" height="30" rx="8" fill="#0a66c2"/>
  <path d="M14 17.5a2.5 2.5 0 1 0 0-5 2.5 2.5 0 0 0 0 5zM11.5 20h5v14h-5zM19.5 20h4.8v2h.1c.7-1.3 2.3-2.5 4.8-2.5 5.1 0 6.1 3.4 6.1 7.7V34h-5v-6.2c0-1.5 0-3.4-2.1-3.4s-2.4 1.6-2.4 3.3V34h-5V20z" fill="#ffffff"/>
</svg>
